<svg class="svg-icon" style="width: 1em; height: 1em;vertical-align: middle;fill: currentColor;overflow: hidden;" viewBox="0 0 1024 1024" version="1.1" xmlns="http://www.w3.org/2000/svg"><path d="M603.428571 438.857143h18.285715V219.428571H402.285714v219.428572h18.285715a54.857143 54.857143 0 0 1 50.688-54.692572A54.656 54.656 0 0 1 457.142857 347.428571v-36.571428a54.857143 54.857143 0 0 1 109.714286 0v36.571428a54.674286 54.674286 0 0 1-14.116572 36.736A54.857143 54.857143 0 0 1 603.428571 438.857143zM256 73.142857h512a54.857143 54.857143 0 0 1 54.857143 54.857143v768a54.857143 54.857143 0 0 1-54.857143 54.857143H256a54.857143 54.857143 0 0 1-54.857143-54.857143V128a54.857143 54.857143 0 0 1 54.857143-54.857143z m0 36.571429a18.285714 18.285714 0 0 0-18.285714 18.285714v768a18.285714 18.285714 0 0 0 18.285714 18.285714h512a18.285714 18.285714 0 0 0 18.285714-18.285714V128a18.285714 18.285714 0 0 0-18.285714-18.285714H256z m73.142857 438.857143h365.714286a18.285714 18.285714 0 0 1 0 36.571428H329.142857a18.285714 18.285714 0 0 1 0-36.571428z m0 73.142857h329.142857a18.285714 18.285714 0 0 1 0 36.571428H329.142857a18.285714 18.285714 0 0 1 0-36.571428z m0 109.714285h365.714286a18.285714 18.285714 0 0 1 0 36.571429H329.142857a18.285714 18.285714 0 0 1 0-36.571429z m0 73.142858h256a18.285714 18.285714 0 0 1 0 36.571428H329.142857a18.285714 18.285714 0 0 1 0-36.571428z m54.857143-621.714286h256a18.285714 18.285714 0 0 1 18.285714 18.285714v256a18.285714 18.285714 0 0 1-18.285714 18.285714H384a18.285714 18.285714 0 0 1-18.285714-18.285714V201.142857a18.285714 18.285714 0 0 1 18.285714-18.285714z m128 109.714286a18.285714 18.285714 0 0 0-18.285714 18.285714v36.571428a18.285714 18.285714 0 0 0 36.571428 0v-36.571428a18.285714 18.285714 0 0 0-18.285714-18.285714z m-54.857143 146.285714h109.714286a18.285714 18.285714 0 0 0-18.285714-18.285714h-73.142858a18.285714 18.285714 0 0 0-18.285714 18.285714z" fill="#005DBA" /><path d="M603.428571 438.857143h18.285715V219.428571H402.285714v219.428572h18.285715a54.857143 54.857143 0 0 1 50.688-54.692572A54.656 54.656 0 0 1 457.142857 347.428571v-36.571428a54.857143 54.857143 0 0 1 109.714286 0v36.571428a54.674286 54.674286 0 0 1-14.116572 36.736A54.857143 54.857143 0 0 1 603.428571 438.857143zM256 109.714286a18.285714 18.285714 0 0 0-18.285714 18.285714v768a18.285714 18.285714 0 0 0 18.285714 18.285714h512a18.285714 18.285714 0 0 0 18.285714-18.285714V128a18.285714 18.285714 0 0 0-18.285714-18.285714H256z m73.142857 438.857143h365.714286a18.285714 18.285714 0 0 1 0 36.571428H329.142857a18.285714 18.285714 0 0 1 0-36.571428z m0 73.142857h329.142857a18.285714 18.285714 0 0 1 0 36.571428H329.142857a18.285714 18.285714 0 0 1 0-36.571428z m0 109.714285h365.714286a18.285714 18.285714 0 0 1 0 36.571429H329.142857a18.285714 18.285714 0 0 1 0-36.571429z m0 73.142858h256a18.285714 18.285714 0 0 1 0 36.571428H329.142857a18.285714 18.285714 0 0 1 0-36.571428z m54.857143-621.714286h256a18.285714 18.285714 0 0 1 18.285714 18.285714v256a18.285714 18.285714 0 0 1-18.285714 18.285714H384a18.285714 18.285714 0 0 1-18.285714-18.285714V201.142857a18.285714 18.285714 0 0 1 18.285714-18.285714z m128 109.714286a18.285714 18.285714 0 0 0-18.285714 18.285714v36.571428a18.285714 18.285714 0 0 0 36.571428 0v-36.571428a18.285714 18.285714 0 0 0-18.285714-18.285714z m-54.857143 146.285714h109.714286a18.285714 18.285714 0 0 0-18.285714-18.285714h-73.142858a18.285714 18.285714 0 0 0-18.285714 18.285714z" fill="#FFFFFF" /></svg>