<svg class="svg-icon" style="width: 1em; height: 1em;vertical-align: middle;fill: currentColor;overflow: hidden;" viewBox="0 0 1024 1024" version="1.1" xmlns="http://www.w3.org/2000/svg"><path d="M721.1 928.4c-22.1 0-40-17.9-40-40v-83.6c0-70.2-57.1-127.3-127.3-127.3H219.3c-70.2 0-127.3 57-127.3 127.2v83.6c0 22.1-17.9 40-40 40s-40-17.9-40-40v-83.6c0-114.3 93-207.3 207.3-207.3h334.5c114.3 0 207.3 93 207.3 207.3v83.6c0 22.2-17.9 40.1-40 40.1zM386.5 510.2c-114.3 0-207.3-93-207.3-207.3s93-207.3 207.3-207.3 207.3 93 207.3 207.3-93 207.3-207.3 207.3z m0-334.6c-70.2 0-127.3 57.1-127.3 127.3s57.1 127.3 127.3 127.3 127.3-57.1 127.3-127.3-57.1-127.3-127.3-127.3zM972 928.4c-22.1 0-40-17.9-40-40v-83.6c0-58-39.3-108.6-95.5-123.1-21.4-5.5-34.3-27.3-28.7-48.7 5.5-21.4 27.3-34.3 48.7-28.7 91.5 23.6 155.4 106.1 155.5 200.5v83.7c0 22-17.9 39.9-40 39.9zM679.2 505.2c-17.8 0-34.1-12-38.7-30.1-5.5-21.4 7.4-43.2 28.8-48.7C725.6 412 765 361.3 765 303.1s-39.4-108.9-95.7-123.3c-21.4-5.5-34.3-27.3-28.8-48.7s27.3-34.3 48.7-28.8c91.8 23.5 155.9 106.1 155.9 200.8S781 480.4 689.2 503.9c-3.3 0.9-6.7 1.3-10 1.3z" fill="#C69C6D" /></svg>