<!DOCTYPE svg PUBLIC "-//W3C//DTD SVG 1.1//EN" "http://www.w3.org/Graphics/SVG/1.1/DTD/svg11.dtd">
<!-- Uploaded to: SVG Repo, www.svgrepo.com, Transformed by: SVG Repo Mixer Tools -->
<svg width="800px" height="800px" viewBox="-2.4 -2.4 28.80 28.80" xmlns="http://www.w3.org/2000/svg" fill="#f58732" stroke="#f58732">
<g id="SVGRepo_bgCarrier" stroke-width="0"/>
<g id="SVGRepo_tracerCarrier" stroke-linecap="round" stroke-linejoin="round"/>
<g id="SVGRepo_iconCarrier"> <path fill="none" stroke="#f58732" stroke-width="2" d="M12,13 C14.209139,13 16,11.209139 16,9 C16,6.790861 14.209139,5 12,5 C9.790861,5 8,6.790861 8,9 C8,11.209139 9.790861,13 12,13 Z M6,22 L6,19 C6,15.6862915 8.6862915,13 12,13 C15.3137085,13 18,15.6862915 18,19 L18,22 M13,5 C13.4037285,3.33566165 15.0151447,2 17,2 C19.172216,2 20.98052,3.790861 21,6 C20.98052,8.209139 19.172216,10 17,10 L16,10 L17,10 C20.287544,10 23,12.6862915 23,16 L23,18 M11,5 C10.5962715,3.33566165 8.98485529,2 7,2 C4.82778404,2 3.01948003,3.790861 3,6 C3.01948003,8.209139 4.82778404,10 7,10 L8,10 L7,10 C3.71245602,10 1,12.6862915 1,16 L1,18"/> </g>
</svg>