<svg class="svg-icon" style="width: 1em;height: 1em;vertical-align: middle;fill: currentColor;overflow: hidden;" viewBox="0 0 1024 1024" version="1.1" xmlns="http://www.w3.org/2000/svg"><path d="M598.2 240.6L282.4 386c-3.8 1.7-6.2 5.5-6.2 9.7h-82.6l-16.4 16.4v128.5l15.6 15.6h83.4c0 6.2 3.7 11.9 9.4 14.4l62.3 27.5v136.4c-20.8 6.5-35.9 25.9-35.9 48.9 0 28.3 22.9 51.2 51.2 51.2s51.2-22.9 51.2-51.2c0-22.9-15.1-42.3-35.9-48.9V575.3c0-1.2-0.7-2.3-1.8-2.8L321 547.8c-6.6-2.9-10.8-9.4-10.8-16.6V417.4c0-5.8 3.4-11.1 8.7-13.4l164.4-74.2c5.3-2.4 11.3 1.5 11.3 7.3v278.6c0 4.4-4.5 7.3-8.5 5.5l-63-28.2-12 29.8 183.8 83.7c11.3-7.3 14.9-9.6 26.2-16.9V255.3c-9.9-6.4-13-8.3-22.9-14.7z m-322 281.8H211v-92.9h65.2v92.9z m310.8 135c0 4-4.1 6.7-7.8 5.1l-38.4-17.1c-5.2-2.3-8.5-7.4-8.5-13.1V317.5c0-6 3.5-11.5 9-13.9l38.5-17.4c3.4-1.5 7.2 0.9 7.2 4.6v366.6zM785 678.1l1.3-1.3c110.9-112.3 110-294-2-405.2l-1.1-1.1-1.3 0.1-1.4-0.1-18.2 18.3 2.4 2.4c98.3 97.6 102.9 253.4 11 356.4l-39.1-38.3c70-80.8 65.6-202.2-10.5-277.8l-1-1-17.5 0.1-53.5 54.2 0.1 17.5 1 1c37.2 37.1 40.4 95.9 7.4 136.8l-0.7 0.9 12 27.6 1.4-1.4c46.3-46.9 49.8-122.4 8.5-173.3l32.3-32.7c59.6 69.2 56.2 173.3-8.3 238.6l-1 1 0.1 18 60.5 59.3H785z" fill="#1E88E5" /></svg>